<?xml version="1.0" encoding="UTF-8" standalone="no"?>
<!-- Created with Inkscape (http://www.inkscape.org/) by Marsupilami -->
<svg
   xmlns:svg="http://www.w3.org/2000/svg"
   xmlns="http://www.w3.org/2000/svg"
   version="1.0"
   width="1024"
   height="308"
   viewBox="0 0 294.55988 88.582878"
   id="svg33182">
  <defs
     id="defs33184" />
  <g
     transform="translate(52.99422,-262.35648)"
     id="layer1">
    <path
       d="M 0.15625,0 L 0.15625,0.71875 L 0.15625,61.875 L 1.53125,61.875 L 1.53125,1.40625 L 62,1.40625 L 62,0 L 0.84375,0 L 0.15625,0 z M 35.78125,9.4375 C 25.717502,9.4375004 16.9925,15.11375 12.59375,23.4375 L 59,23.4375 C 54.59875,15.1225 45.845,9.44375 35.78125,9.4375 z M 12.59375,23.4375 C 10.665,27.096251 9.5625,31.265 9.5625,35.6875 C 9.5624998,37.96375 9.85875,40.195 10.40625,42.3125 L 34.75,45.125 L 34.75,34.625 L 62,34.625 C 61.932498,32.688749 61.65375,30.8325 61.1875,29.03125 L 12.59375,23.4375 z M 275.8125,18.21875 C 273.83625,18.21875 272.96874,19.43625 272.96875,21.28125 L 272.96875,23.8125 L 271.1875,23.8125 L 271.1875,25.3125 L 272.96875,25.3125 L 272.96875,35.125 L 274.84375,35.125 L 274.84375,25.3125 L 276.90625,25.3125 L 276.90625,23.8125 L 274.84375,23.8125 L 274.84375,21.4375 C 274.84375,20.305 275.14874,19.71875 276.1875,19.71875 C 276.6325,19.71875 277.05874,19.790001 277.28125,19.96875 L 277.28125,18.375 C 276.85875,18.26625 276.32252,18.21875 275.8125,18.21875 z M 184.53125,18.46875 L 184.53125,35.125 L 186.40625,35.125 L 186.40625,18.46875 L 184.53125,18.46875 z M 146.90625,19.125 L 146.90625,21.34375 L 148.96875,21.34375 L 148.96875,19.125 L 146.90625,19.125 z M 226.9375,19.125 L 226.9375,21.34375 L 228.96875,21.34375 L 228.96875,19.125 L 226.9375,19.125 z M 78.71875,19.625 L 78.71875,35.125 L 80.65625,35.125 L 80.65625,19.625 L 78.71875,19.625 z M 195.4375,19.625 L 195.4375,35.125 L 197.375,35.125 L 197.375,19.625 L 195.4375,19.625 z M 97.5625,20.9375 L 95.6875,21.5 L 95.6875,23.8125 L 93.875,23.8125 L 93.875,25.3125 L 95.6875,25.3125 L 95.6875,32.59375 C 95.6875,34.595 96.599998,35.281251 98.3125,35.28125 C 98.82375,35.28125 99.431249,35.155 99.875,35 L 99.875,33.5 C 99.52,33.655 99.186248,33.781251 98.71875,33.78125 C 97.87625,33.78125 97.562502,33.28875 97.5625,32 L 97.5625,25.3125 L 99.875,25.3125 L 99.875,23.8125 L 97.5625,23.8125 L 97.5625,20.9375 z M 142.6875,20.9375 L 140.8125,21.5 L 140.8125,23.8125 L 139.03125,23.8125 L 139.03125,25.3125 L 140.8125,25.3125 L 140.8125,32.59375 C 140.8125,34.595 141.7275,35.281251 143.4375,35.28125 C 143.94875,35.28125 144.585,35.155 145.03125,35 L 145.03125,33.5 C 144.67625,33.655 144.3425,33.781251 143.875,33.78125 C 143.03375,33.78125 142.68751,33.28875 142.6875,32 L 142.6875,25.3125 L 145.03125,25.3125 L 145.03125,23.8125 L 142.6875,23.8125 L 142.6875,20.9375 z M 222.71875,20.9375 L 220.84375,21.5 L 220.84375,23.8125 L 219.03125,23.8125 L 219.03125,25.3125 L 220.84375,25.3125 L 220.84375,32.59375 C 220.84375,34.595 221.75125,35.281251 223.46875,35.28125 C 223.97625,35.28125 224.58876,35.155 225.03125,35 L 225.03125,33.5 C 224.67625,33.655 224.37,33.781251 223.90625,33.78125 C 223.0625,33.78125 222.71874,33.28875 222.71875,32 L 222.71875,25.3125 L 225.03125,25.3125 L 225.03125,23.8125 L 222.71875,23.8125 L 222.71875,20.9375 z M 234.65625,20.9375 L 232.8125,21.5 L 232.8125,23.8125 L 231,23.8125 L 231,25.3125 L 232.8125,25.3125 L 232.8125,32.59375 C 232.8125,34.595 233.725,35.281251 235.4375,35.28125 C 235.94875,35.28125 236.5525,35.155 237,35 L 237,33.5 C 236.645,33.655 236.31125,33.781251 235.84375,33.78125 C 234.99875,33.78125 234.65625,33.28875 234.65625,32 L 234.65625,25.3125 L 237,25.3125 L 237,23.8125 L 234.65625,23.8125 L 234.65625,20.9375 z M 252.40625,20.9375 L 250.53125,21.5 L 250.53125,23.8125 L 248.75,23.8125 L 248.75,25.3125 L 250.53125,25.3125 L 250.53125,32.59375 C 250.53125,34.595 251.4425,35.281251 253.15625,35.28125 C 253.6675,35.28125 254.305,35.155 254.75,35 L 254.75,33.5 C 254.39375,33.655 254.06125,33.781251 253.59375,33.78125 C 252.7525,33.78125 252.40624,33.28875 252.40625,32 L 252.40625,25.3125 L 254.75,25.3125 L 254.75,23.8125 L 252.40625,23.8125 L 252.40625,20.9375 z M 88.65625,23.65625 C 87.34625,23.65625 86.382497,24.21 85.78125,25.5 L 85.75,25.5 L 85.65625,23.8125 L 83.875,23.8125 C 83.89875,24.6125 83.968748,25.42625 83.96875,26.25 L 83.96875,35.125 L 85.8125,35.125 L 85.8125,28.3125 C 85.8125,26.27 86.752497,25.249999 88.21875,25.25 C 89.41875,25.25 90.093753,26.012499 90.09375,27.8125 L 90.09375,35.125 L 91.96875,35.125 L 91.96875,27.28125 C 91.96875,24.79 90.634998,23.656249 88.65625,23.65625 z M 105.5,23.65625 C 102.67625,23.65625 101.125,25.91375 101.125,29.46875 C 101.125,33.025001 102.68625,35.28125 105.6875,35.28125 C 106.82375,35.281249 107.9875,35.04625 108.875,34.625 L 108.78125,32.9375 C 108.13375,33.402499 107.1225,33.875 106.1875,33.875 C 104.12125,33.875 103.09375,32.65125 103.09375,30.03125 L 109.5,30.03125 L 109.5,29.03125 C 109.5,25.70125 108.0575,23.65625 105.5,23.65625 z M 116.8125,23.65625 C 115.14625,23.65625 114.1925,24.214999 113.59375,25.59375 L 113.5625,25.59375 L 113.5,23.8125 L 111.6875,23.8125 C 111.71,24.6125 111.78125,25.42625 111.78125,26.25 L 111.78125,35.125 L 113.65625,35.125 L 113.65625,29.125 C 113.65625,26.6625 114.67875,25.437499 116.125,25.4375 C 116.36625,25.4375 116.59,25.455 116.8125,25.5 L 116.8125,23.65625 z M 123.28125,23.65625 C 121.97125,23.65625 121.005,24.21 120.40625,25.5 L 120.34375,25.5 L 120.28125,23.8125 L 118.5,23.8125 C 118.5225,24.6125 118.59375,25.42625 118.59375,26.25 L 118.59375,35.125 L 120.4375,35.125 L 120.4375,28.3125 C 120.4375,26.27 121.375,25.249999 122.84375,25.25 C 124.04375,25.25 124.71875,26.012499 124.71875,27.8125 L 124.71875,35.125 L 126.59375,35.125 L 126.59375,27.28125 C 126.59375,24.79 125.2575,23.656249 123.28125,23.65625 z M 133.15625,23.65625 C 132.04249,23.65625 130.90125,23.99 129.96875,24.59375 L 130.15625,26.34375 C 130.8025,25.6325 131.90625,25.15625 133.0625,25.15625 C 133.84126,25.15625 134.58875,25.36625 134.96875,25.875 C 135.32501,26.365 135.375,26.84375 135.375,27.6875 L 135.375,28.1875 L 134.28125,28.1875 C 130.39,28.187501 128.96875,29.83 128.96875,32.03125 C 128.96876,34.209999 130.35125,35.28125 132.21875,35.28125 C 133.95251,35.281251 134.89375,34.46 135.40625,33.59375 L 135.4375,33.59375 L 135.5625,35.125 L 137.25,35.125 C 137.20875,34.726249 137.15625,34.0725 137.15625,33.40625 L 137.15625,27.5 C 137.15625,25.9025 136.67625,25.20875 136.1875,24.71875 C 135.8325,24.363749 134.81875,23.65625 133.15625,23.65625 z M 155.96875,23.65625 C 152.96999,23.65625 151.4375,25.91375 151.4375,29.46875 C 151.4375,33.025 152.97,35.28125 155.96875,35.28125 C 158.96874,35.281251 160.53125,33.025 160.53125,29.46875 C 160.53125,25.91375 158.96875,23.65625 155.96875,23.65625 z M 167.59375,23.65625 C 166.28125,23.65625 165.3475,24.21 164.75,25.5 L 164.6875,25.5 L 164.625,23.8125 L 162.8125,23.8125 C 162.835,24.6125 162.90625,25.42625 162.90625,26.25 L 162.90625,35.125 L 164.78125,35.125 L 164.78125,28.3125 C 164.78125,26.27 165.7175,25.249999 167.1875,25.25 C 168.3875,25.25 169.0625,26.012499 169.0625,27.8125 L 169.0625,35.125 L 170.90625,35.125 L 170.90625,27.28125 C 170.90625,24.79 169.5725,23.656249 167.59375,23.65625 z M 177.5,23.65625 C 176.38875,23.65625 175.2125,23.99 174.28125,24.59375 L 174.5,26.34375 C 175.14375,25.6325 176.25375,25.15625 177.40625,25.15625 C 178.18625,25.15625 178.905,25.36625 179.28125,25.875 C 179.63625,26.365 179.71875,26.84375 179.71875,27.6875 L 179.71875,28.1875 L 178.625,28.1875 C 174.73626,28.187501 173.28125,29.83 173.28125,32.03125 C 173.28125,34.209999 174.69875,35.28125 176.5625,35.28125 C 178.30125,35.281251 179.24,34.46 179.75,33.59375 L 179.78125,33.59375 L 179.875,35.125 L 181.59375,35.125 C 181.54875,34.726249 181.5,34.0725 181.5,33.40625 L 181.5,27.5 C 181.5,25.9025 181.01625,25.20875 180.53125,24.71875 C 180.17376,24.363749 179.165,23.65625 177.5,23.65625 z M 205.34375,23.65625 C 204.0325,23.65625 203.10126,24.21 202.5,25.5 L 202.4375,25.5 L 202.375,23.8125 L 200.59375,23.8125 C 200.61875,24.6125 200.65625,25.42625 200.65625,26.25 L 200.65625,35.125 L 202.53125,35.125 L 202.53125,28.3125 C 202.53125,26.27 203.46875,25.249999 204.9375,25.25 C 206.14,25.25 206.81251,26.012499 206.8125,27.8125 L 206.8125,35.125 L 208.6875,35.125 L 208.6875,27.28125 C 208.6875,24.79 207.32,23.656249 205.34375,23.65625 z M 214.6875,23.65625 C 212.485,23.65625 211.03125,25.0725 211.03125,26.9375 C 211.03125,28.38125 211.62875,29.10875 213.25,29.84375 L 214.5,30.40625 C 215.545,30.87375 215.93749,31.4075 215.9375,32.1875 C 215.9375,33.0525 215.205,33.78125 213.78125,33.78125 C 212.85,33.78125 211.97126,33.449998 211.125,32.9375 L 211,34.625 C 211.82375,35.04625 212.88375,35.281249 214.0625,35.28125 C 216.6625,35.28125 217.71875,33.734999 217.71875,31.78125 C 217.71875,30.38 216.84875,29.46125 215.46875,28.90625 L 214.8125,28.625 C 213.57,28.13375 212.90624,27.63 212.90625,26.71875 C 212.90625,25.83 213.5275,25.156251 214.75,25.15625 C 215.595,25.15625 216.39125,25.392501 216.96875,25.65625 L 217.0625,24.0625 C 216.4175,23.81875 215.61749,23.65625 214.6875,23.65625 z M 260.375,23.65625 C 257.54875,23.65625 255.96875,25.915 255.96875,29.46875 C 255.96874,33.026251 257.53,35.28125 260.53125,35.28125 C 261.66624,35.281251 262.835,35.045 263.71875,34.625 L 263.625,32.9375 C 262.97999,33.403751 261.965,33.875 261.03125,33.875 C 258.96375,33.875002 257.9375,32.65 257.9375,30.03125 L 264.34375,30.03125 L 264.34375,29.03125 C 264.34375,25.700001 262.92625,23.65625 260.375,23.65625 z M 282.59375,23.65625 C 279.59249,23.65625 278.03125,25.91375 278.03125,29.46875 C 278.03126,33.025 279.5925,35.28125 282.59375,35.28125 C 285.59374,35.281251 287.125,33.025 287.125,29.46875 C 287.125,25.91375 285.59375,23.65625 282.59375,23.65625 z M 294.5625,23.65625 C 292.89625,23.65625 291.945,24.214999 291.34375,25.59375 L 291.28125,25.59375 L 291.21875,23.8125 L 289.4375,23.8125 C 289.45375,24.61375 289.53126,25.42625 289.53125,26.25 L 289.53125,35.125 L 291.375,35.125 L 291.375,29.125 C 291.375,26.6625 292.39748,25.437499 293.84375,25.4375 C 294.08875,25.4375 294.34249,25.455 294.5625,25.5 L 294.5625,23.65625 z M 147,23.8125 L 147,35.125 L 148.875,35.125 L 148.875,23.8125 L 147,23.8125 z M 227.03125,23.8125 L 227.03125,35.125 L 228.90625,35.125 L 228.90625,23.8125 L 227.03125,23.8125 z M 238.8125,23.8125 L 238.8125,31.65625 C 238.8125,34.14625 240.14625,35.281251 242.125,35.28125 C 243.43625,35.28125 244.36749,34.725001 244.96875,33.4375 L 245.03125,33.4375 L 245.09375,35.125 L 246.90625,35.125 C 246.8825,34.325 246.8125,33.509999 246.8125,32.6875 L 246.8125,23.8125 L 244.9375,23.8125 L 244.9375,30.625 C 244.9375,32.66875 243.99875,33.687498 242.53125,33.6875 C 241.3325,33.6875 240.68751,32.926251 240.6875,31.125 L 240.6875,23.8125 L 238.8125,23.8125 z M 105.40625,25.0625 C 106.895,25.062499 107.625,26.24 107.625,28.59375 L 103.09375,28.59375 C 103.13625,25.94875 104.205,25.0625 105.40625,25.0625 z M 260.25,25.0625 C 261.73999,25.062501 262.46875,26.23875 262.46875,28.59375 L 257.9375,28.59375 C 257.98249,25.9475 259.04875,25.0625 260.25,25.0625 z M 155.96875,25.15625 C 157.74874,25.15625 158.59375,26.62375 158.59375,29.46875 C 158.59375,32.31375 157.74875,33.78125 155.96875,33.78125 C 154.19499,33.781249 153.375,32.31375 153.375,29.46875 C 153.375,26.62375 154.195,25.15625 155.96875,25.15625 z M 282.59375,25.15625 C 284.37249,25.15625 285.1875,26.62375 285.1875,29.46875 C 285.18749,32.31375 284.3725,33.78125 282.59375,33.78125 C 280.81374,33.781249 279.96875,32.31375 279.96875,29.46875 C 279.96875,26.62375 280.81375,25.15625 282.59375,25.15625 z M 134.0625,29.53125 C 134.57126,29.53125 135.04125,29.54875 135.375,29.59375 L 135.375,31 C 135.37499,32.555 134.34125,33.875 132.71875,33.875 C 131.43,33.875002 130.8125,33.1075 130.8125,31.90625 C 130.8125,30.595 131.85875,29.53125 134.0625,29.53125 z M 178.40625,29.53125 C 178.92,29.53125 179.38875,29.54875 179.71875,29.59375 L 179.71875,31 C 179.71875,32.555 178.68875,33.875 177.0625,33.875 C 175.78001,33.875002 175.15625,33.1075 175.15625,31.90625 C 175.15626,30.595 176.20875,29.53125 178.40625,29.53125 z M 36.84375,36.71875 L 36.84375,45.34375 L 59,47.90625 C 60.769999,44.541248 61.8325,40.75125 62,36.71875 L 36.84375,36.71875 z M 59,47.90625 L 36.84375,47.90625 L 36.84375,61.875 C 46.459999,61.501251 54.7525,55.9475 59,47.90625 z M 113.34375,45 L 113.34375,61.65625 L 115.1875,61.65625 L 115.1875,45 L 113.34375,45 z M 139.84375,45 L 139.84375,51.875 L 139.8125,51.875 C 139.05625,50.676252 138.19625,50.1875 136.90625,50.1875 C 134.57249,50.187502 133,52.09 133,56 C 133,59.91125 134.5725,61.8125 136.90625,61.8125 C 138.55124,61.812501 139.4175,60.88875 139.90625,60 L 139.9375,60 L 140,61.65625 L 141.8125,61.65625 C 141.79,60.96625 141.71875,60.2525 141.71875,59.5625 L 141.71875,45 L 139.84375,45 z M 258.375,45 L 258.375,61.65625 L 260.21875,61.65625 L 260.21875,45 L 258.375,45 z M 118.40625,45.65625 L 118.40625,47.875 L 120.4375,47.875 L 120.4375,45.65625 L 118.40625,45.65625 z M 281.125,45.65625 L 281.125,47.875 L 283.1875,47.875 L 283.1875,45.65625 L 281.125,45.65625 z M 153.96875,46 C 151.6125,46 149.65624,47.31875 149.65625,49.875 C 149.65625,51.875 150.29374,52.841251 153.09375,54.53125 C 155.18,55.7975 155.5,56.486251 155.5,57.6875 C 155.5,58.955 154.50375,60.125001 152.75,60.125 C 151.835,60.125 150.66999,59.657501 149.78125,59.125 L 149.78125,61.15625 C 150.6025,61.55625 151.78375,61.812501 153.03125,61.8125 C 156.00625,61.8125 157.53125,59.873749 157.53125,57.40625 C 157.53125,55.6275 156.74375,54.284998 154.34375,52.90625 C 152.1225,51.61875 151.71874,50.999999 151.71875,50 C 151.71875,48.68875 152.65749,47.687498 154.125,47.6875 C 155.07875,47.6875 156.04625,47.963752 156.78125,48.40625 L 156.78125,46.5 C 156.09125,46.21125 154.99375,45.999999 153.96875,46 z M 82.375,46.15625 L 77.1875,61.65625 L 79.125,61.65625 L 80.375,57.625 L 86.28125,57.625 L 87.53125,61.65625 L 89.5625,61.65625 L 84.5,46.15625 L 82.375,46.15625 z M 227.78125,46.15625 L 222.59375,61.65625 L 224.53125,61.65625 L 225.78125,57.625 L 231.6875,57.625 L 232.9375,61.65625 L 234.96875,61.65625 L 229.90625,46.15625 L 227.78125,46.15625 z M 180.5,47.46875 L 178.625,48.03125 L 178.625,50.34375 L 176.8125,50.34375 L 176.8125,51.84375 L 178.625,51.84375 L 178.625,59.125 C 178.625,61.12375 179.545,61.812501 181.25,61.8125 C 181.765,61.8125 182.36625,61.687501 182.8125,61.53125 L 182.8125,60.03125 C 182.4575,60.1875 182.12125,60.312501 181.65625,60.3125 C 180.81125,60.3125 180.50001,59.819998 180.5,58.53125 L 180.5,51.84375 L 182.8125,51.84375 L 182.8125,50.34375 L 180.5,50.34375 L 180.5,47.46875 z M 12.59375,47.90625 C 16.84125,55.934999 25.13625,61.50125 34.75,61.875 L 34.75,47.90625 L 12.59375,47.90625 z M 83.34375,48.1875 L 83.40625,48.1875 L 85.78125,55.9375 L 80.90625,55.9375 L 83.34375,48.1875 z M 228.75,48.1875 L 228.8125,48.1875 L 231.1875,55.9375 L 226.3125,55.9375 L 228.75,48.1875 z M 95.96875,50.1875 C 94.325003,50.187502 93.4575,51.115 92.96875,52 L 92.9375,52 L 92.875,50.34375 L 91.0625,50.34375 C 91.085,51.032502 91.15625,51.745 91.15625,52.4375 L 91.15625,66.46875 L 93.03125,66.46875 L 93.03125,60.125 L 93.0625,60.125 C 93.81875,61.3225 94.68,61.8125 95.96875,61.8125 C 98.305003,61.812501 99.875,59.91125 99.875,56 C 99.874998,52.09 98.305,50.1875 95.96875,50.1875 z M 106.875,50.1875 C 105.23,50.187502 104.36375,51.115 103.875,52 L 103.84375,52 L 103.78125,50.34375 L 101.96875,50.34375 C 101.99,51.032502 102.0625,51.745 102.0625,52.4375 L 102.0625,66.46875 L 103.9375,66.46875 L 103.9375,60.125 L 103.96875,60.125 C 104.725,61.3225 105.58625,61.8125 106.875,61.8125 C 109.21,61.812501 110.78125,59.91125 110.78125,56 C 110.78125,52.09 109.21,50.1875 106.875,50.1875 z M 127.28125,50.1875 C 124.46,50.187502 122.90625,52.445 122.90625,56 C 122.90625,59.556249 124.46875,61.8125 127.46875,61.8125 C 128.60125,61.812501 129.76625,61.57875 130.65625,61.15625 L 130.5625,59.46875 C 129.9175,59.936251 128.9025,60.40625 127.96875,60.40625 C 125.9025,60.40625 124.875,59.18375 124.875,56.5625 L 131.28125,56.5625 L 131.28125,55.5625 C 131.28125,52.22625 129.83875,50.1875 127.28125,50.1875 z M 172.4375,50.1875 C 170.24,50.1875 168.8125,51.601251 168.8125,53.46875 C 168.8125,54.9125 169.4125,55.640001 171.03125,56.375 L 172.28125,56.9375 C 173.325,57.405 173.71875,57.942501 173.71875,58.71875 C 173.71875,59.585 172.9825,60.312501 171.5625,60.3125 C 170.6275,60.3125 169.75001,59.979999 168.90625,59.46875 L 168.78125,61.15625 C 169.60625,61.57875 170.66875,61.812499 171.84375,61.8125 C 174.445,61.8125 175.5,60.267501 175.5,58.3125 C 175.5,56.9125 174.62251,55.992499 173.25,55.4375 L 172.59375,55.15625 C 171.34875,54.66625 170.65624,54.161248 170.65625,53.25 C 170.65625,52.36 171.3075,51.6875 172.53125,51.6875 C 173.37625,51.6875 174.17375,51.923751 174.75,52.1875 L 174.84375,50.5625 C 174.19875,50.31875 173.3725,50.1875 172.4375,50.1875 z M 188.4375,50.1875 C 185.61874,50.187502 184.0625,52.445 184.0625,56 C 184.0625,59.556249 185.62,61.8125 188.625,61.8125 C 189.75,61.812501 190.92125,61.57875 191.8125,61.15625 L 191.71875,59.46875 C 191.07375,59.936251 190.05875,60.40625 189.125,60.40625 C 187.055,60.40625 186.03125,59.18375 186.03125,56.5625 L 192.4375,56.5625 L 192.4375,55.5625 C 192.4375,52.22625 190.9975,50.1875 188.4375,50.1875 z M 199.34375,50.1875 C 198.1,50.1875 197.13625,50.74375 196.53125,52.03125 L 196.5,52.03125 L 196.4375,50.34375 L 194.625,50.34375 C 194.64625,51.1425 194.71874,51.961249 194.71875,52.78125 L 194.71875,61.65625 L 196.59375,61.65625 L 196.59375,54.65625 C 196.59375,52.61125 197.34001,51.78125 198.71875,51.78125 C 199.82875,51.78125 200.43749,52.431249 200.4375,53.875 L 200.4375,61.65625 L 202.3125,61.65625 L 202.3125,54.65625 C 202.3125,52.61125 203.06,51.78125 204.4375,51.78125 C 205.55,51.78125 206.1875,52.431249 206.1875,53.875 L 206.1875,61.65625 L 208.03125,61.65625 L 208.03125,53.8125 C 208.03125,51.32375 206.70749,50.1875 204.75,50.1875 C 203.45625,50.1875 202.59875,50.854998 202,51.96875 C 201.42,50.8125 200.5425,50.1875 199.34375,50.1875 z M 214.03125,50.1875 C 211.83125,50.1875 210.40626,51.601251 210.40625,53.46875 C 210.40625,54.9125 211,55.640001 212.625,56.375 L 213.875,56.9375 C 214.91875,57.405 215.3125,57.942501 215.3125,58.71875 C 215.3125,59.58625 214.5775,60.312501 213.15625,60.3125 C 212.2225,60.3125 211.34624,59.979999 210.5,59.46875 L 210.375,61.15625 C 211.1975,61.57875 212.26001,61.812499 213.4375,61.8125 C 216.0375,61.8125 217.09375,60.267501 217.09375,58.3125 C 217.09375,56.9125 216.225,55.992499 214.84375,55.4375 L 214.1875,55.15625 C 212.94125,54.66625 212.28125,54.161248 212.28125,53.25 C 212.28125,52.36 212.9025,51.6875 214.125,51.6875 C 214.97,51.6875 215.795,51.923751 216.375,52.1875 L 216.4375,50.5625 C 215.79375,50.31875 214.9675,50.1875 214.03125,50.1875 z M 241.4375,50.1875 C 240.12625,50.1875 239.16376,50.74375 238.5625,52.03125 L 238.5,52.03125 L 238.4375,50.34375 L 236.65625,50.34375 C 236.6775,51.1425 236.75,51.960001 236.75,52.78125 L 236.75,61.65625 L 238.59375,61.65625 L 238.59375,54.84375 C 238.59375,52.7975 239.52875,51.78125 241,51.78125 C 242.195,51.78125 242.875,52.543748 242.875,54.34375 L 242.875,61.65625 L 244.75,61.65625 L 244.75,53.8125 C 244.75,51.32375 243.41375,50.1875 241.4375,50.1875 z M 251.3125,50.1875 C 250.19875,50.187499 249.0575,50.5225 248.125,51.125 L 248.3125,52.875 C 248.95501,52.163748 250.0625,51.6875 251.21875,51.6875 C 252.00125,51.6875 252.74875,51.89625 253.125,52.40625 C 253.48125,52.896251 253.53125,53.3725 253.53125,54.21875 L 253.53125,54.71875 L 252.4375,54.71875 C 248.545,54.718749 247.125,56.3625 247.125,58.5625 C 247.125,60.73875 248.50875,61.8125 250.375,61.8125 C 252.1075,61.812499 253.05125,60.98875 253.5625,60.125 L 253.59375,60.125 L 253.71875,61.65625 L 255.40625,61.65625 C 255.36125,61.255002 255.3125,60.6025 255.3125,59.9375 L 255.3125,54.03125 C 255.31251,52.433748 254.83375,51.7375 254.34375,51.25 C 253.98625,50.894998 252.975,50.1875 251.3125,50.1875 z M 275.65625,50.1875 C 273.45625,50.1875 272.03124,51.601251 272.03125,53.46875 C 272.03125,54.9125 272.62623,55.641251 274.25,56.375 L 275.5,56.9375 C 276.545,57.405 276.93749,57.942501 276.9375,58.71875 C 276.9375,59.58625 276.20123,60.312501 274.78125,60.3125 C 273.84875,60.3125 272.97375,59.979999 272.125,59.46875 L 272,61.15625 C 272.82375,61.57875 273.88376,61.812499 275.0625,61.8125 C 277.6625,61.8125 278.71874,60.267501 278.71875,58.3125 C 278.71875,56.9125 277.85124,55.992499 276.46875,55.4375 L 275.8125,55.15625 C 274.5675,54.66625 273.90625,54.161248 273.90625,53.25 C 273.90625,52.36 274.52876,51.6875 275.75,51.6875 C 276.59375,51.6875 277.3925,51.923751 277.96875,52.1875 L 278.0625,50.5625 C 277.42,50.31875 276.59,50.1875 275.65625,50.1875 z M 289.28125,50.1875 C 287.08125,50.1875 285.625,51.601251 285.625,53.46875 C 285.625,54.9125 286.2225,55.641251 287.84375,56.375 L 289.09375,56.9375 C 290.13625,57.405 290.53124,57.942501 290.53125,58.71875 C 290.53125,59.58625 289.79624,60.312501 288.375,60.3125 C 287.44125,60.3125 286.56125,59.979999 285.71875,59.46875 L 285.59375,61.15625 C 286.41625,61.57875 287.47999,61.812499 288.65625,61.8125 C 291.25875,61.8125 292.3125,60.267501 292.3125,58.3125 C 292.3125,56.9125 291.44374,55.992499 290.0625,55.4375 L 289.40625,55.15625 C 288.16,54.66625 287.5,54.161248 287.5,53.25 C 287.5,52.36 288.15251,51.6875 289.375,51.6875 C 290.22,51.6875 291.01126,51.923751 291.59375,52.1875 L 291.65625,50.5625 C 291.01375,50.31875 290.21501,50.1875 289.28125,50.1875 z M 118.5,50.34375 L 118.5,61.65625 L 120.34375,61.65625 L 120.34375,50.34375 L 118.5,50.34375 z M 158.84375,50.34375 L 162.4375,61.84375 L 161.96875,63.5625 C 161.66,64.74 161.25375,65.000002 160.71875,65 C 160.3225,65 160.0075,64.913747 159.71875,64.78125 L 159.625,66.46875 C 159.9575,66.55625 160.43,66.593753 160.875,66.59375 C 162.2975,66.59375 163.09875,65.902501 163.65625,63.96875 L 167.59375,50.34375 L 165.75,50.34375 L 163.375,59.5625 L 163.34375,59.5625 L 160.8125,50.34375 L 158.84375,50.34375 z M 262.0625,50.34375 L 265.65625,61.84375 L 265.21875,63.5625 C 264.90625,64.74 264.50249,65.000002 263.96875,65 C 263.57125,65 263.23001,64.913747 262.9375,64.78125 L 262.84375,66.46875 C 263.1775,66.55625 263.68249,66.593753 264.125,66.59375 C 265.55,66.59375 266.3525,65.902501 266.90625,63.96875 L 270.8125,50.34375 L 268.96875,50.34375 L 266.59375,59.5625 L 266.5625,59.5625 L 264.03125,50.34375 L 262.0625,50.34375 z M 281.21875,50.34375 L 281.21875,61.65625 L 283.09375,61.65625 L 283.09375,50.34375 L 281.21875,50.34375 z M 127.1875,51.59375 C 128.67625,51.593751 129.40625,52.76875 129.40625,55.125 L 124.875,55.125 C 124.92125,52.481249 125.98625,51.59375 127.1875,51.59375 z M 188.34375,51.59375 C 189.83001,51.593751 190.5625,52.76875 190.5625,55.125 L 186.03125,55.125 C 186.07626,52.481249 187.145,51.59375 188.34375,51.59375 z M 95.5,51.6875 C 97.21,51.687499 98,53.15625 98,56 C 98.000003,58.84625 97.21,60.3125 95.5,60.3125 C 93.7875,60.312501 93.03125,58.84625 93.03125,56 C 93.031248,53.15625 93.7875,51.6875 95.5,51.6875 z M 106.4375,51.6875 C 108.14625,51.687499 108.90625,53.15625 108.90625,56 C 108.90625,58.84625 108.14625,60.3125 106.4375,60.3125 C 104.725,60.312501 103.9375,58.84625 103.9375,56 C 103.9375,53.15625 104.725,51.6875 106.4375,51.6875 z M 137.34375,51.6875 C 139.05,51.687499 139.84375,53.15625 139.84375,56 C 139.84375,58.84625 139.05,60.3125 137.34375,60.3125 C 135.6325,60.312501 134.875,58.84625 134.875,56 C 134.87499,53.15625 135.6325,51.6875 137.34375,51.6875 z M 252.21875,56.0625 C 252.72875,56.062501 253.1975,56.08 253.53125,56.125 L 253.53125,57.53125 C 253.53125,59.087499 252.53125,60.40625 250.90625,60.40625 C 249.61874,60.406248 249,59.63875 249,58.4375 C 248.99999,57.126249 250.0175,56.0625 252.21875,56.0625 z M 43.8125,69.15625 C 42.01625,69.15625 40.749999,70.91875 40.75,73.46875 C 40.75,77.3525 44,81.607504 44,84.53125 C 44,85.5475 43.337498,86.374999 42.53125,86.375 C 41.96875,86.375 41.382501,85.962499 40.84375,85.3125 L 40.84375,87.84375 C 41.49625,88.355 42.078751,88.59375 42.75,88.59375 C 44.59125,88.59375 45.84375,86.79375 45.84375,84.21875 C 45.84375,80.2525 42.624999,76.159999 42.625,73.15625 C 42.625,71.9375 43.120001,71.34375 44.0625,71.34375 C 44.51,71.34375 44.85375,71.511249 45.4375,71.9375 L 45.4375,69.65625 C 44.81125,69.28625 44.350001,69.15625 43.8125,69.15625 z M 27,69.28125 L 24.15625,88.34375 L 26.03125,88.34375 L 26.59375,84.125 L 29.375,84.125 L 29.9375,88.34375 L 31.78125,88.34375 L 28.96875,69.28125 L 27,69.28125 z M 57.59375,69.28125 L 54.78125,88.34375 L 56.625,88.34375 L 57.21875,84.125 L 60,84.125 L 60.53125,88.34375 L 62.40625,88.34375 L 59.59375,69.28125 L 57.59375,69.28125 z M 0,69.40625 L 0,88.3125 L 1.9375,88.3125 L 1.9375,69.40625 L 0,69.40625 z M 12.625,69.40625 L 12.625,88.3125 L 14.5625,88.3125 L 14.5625,69.40625 L 12.625,69.40625 z M 27.9375,73.9375 L 28,73.9375 L 29.0625,81.875 L 26.90625,81.875 L 27.9375,73.9375 z M 58.5625,73.9375 L 58.625,73.9375 L 59.65625,81.875 L 57.5,81.875 L 58.5625,73.9375 z"
       transform="translate(-52.99422,262.35648)"
       id="path2536"
       style="fill:#1b62b7;fill-opacity:1;fill-rule:nonzero;stroke:none" />
  </g>
</svg>
